PathFileType	4	(X/Y/Z)	OpenSim_Sub01_CSStiffKnee_Accel.trc
DataRate	CameraRate	NumFrames	NumMarkers	Units	OrigDataRate	OrigDataStartFrame	OrigNumFrames
100	100	20	8	m	100	1346	5381
Frame#	Time	torso_imu_offset_imu	pelvis_imu_offset_imu	tibia_r_imu_offset_imu	femur_r_imu_offset_imu	tibia_l_imu_offset_imu	femur_l_imu_offset_imu	toes_r_imu_offset_imu	toes_l_imu_offset_imu
				X1	Y1	Z1	X2	Y2	Z2	X3	Y3	Z3	X4	Y4	Z4	X5	Y5	Z5	X6	Y6	Z6	X7	Y7	Z7	X8		Y8	Z8	

1346	13.45000000	10.72770805	-0.88835631	6.48106343	11.37027833	0.53663564	3.85144995	12.31647119	0.74932623	0.31864506	10.88530829	-1.44966954	-0.37146654	14.03140490	0.33595103	3.42753507	14.79665348	2.49712509	-0.15828465	5.92509417	-1.64245676	8.35775218	13.81986146	1.32653195	18.44761918
1347	13.46000000	11.42454784	-0.63141458	6.74724797	11.89579938	0.09332498	4.54532766	13.33927641	0.48554725	0.46283975	11.52085085	-1.94950919	-0.55271859	14.77056684	0.83544730	4.93258722	16.34541270	2.92905543	-0.96610393	5.80690371	-1.85885085	8.52456098	14.52222842	-1.99309545	16.81992267
1348	13.47000000	11.84601341	-0.49274497	7.05846343	12.25336973	-0.40671655	4.98776893	14.26715803	0.14908297	0.78159712	12.14081648	-2.44347218	-0.54778462	13.77409890	-2.23198893	3.59704486	15.50581103	3.51578078	-1.43026808	5.67024810	-2.25990118	8.58097029	12.50203573	-2.52463462	14.89051093
1349	13.48000000	11.96393393	-0.45344580	7.30944339	12.34819634	-0.67979262	5.08917400	14.83004399	-0.36793572	1.16076676	12.55641509	-2.81150128	-0.32957651	11.69201288	-6.10731001	1.54969569	13.28670416	3.87576010	-1.54656553	5.49150250	-2.59527324	8.42949612	9.40469601	-1.40794820	13.17591927
1350	13.49000000	11.77585472	-0.47909110	7.39539093	12.09839050	-0.44816995	4.79276508	14.78442435	-1.15272469	1.47106662	12.58164292	-2.93718860	0.10838904	9.34583047	-7.76417095	1.11093410	10.91424745	3.60616016	-1.36067748	5.26341325	-2.60355329	7.99638529	7.12147254	-0.15619678	11.98468178
1351	13.50000000	11.31224778	-0.49883568	7.31559605	11.53641290	0.20507280	4.27504246	14.26823764	-1.98978008	1.64145356	12.17948360	-2.80355900	0.66912699	7.47186326	-7.01451714	1.88977781	9.05973214	2.51951795	-1.07863590	5.17096333	-2.27076568	7.48399729	6.05525218	0.73954583	11.31897587
1352	13.51000000	10.62308497	-0.42057042	7.13069363	10.76220812	0.98420702	3.84948323	13.64370451	-2.48568078	1.63532437	11.40111127	-2.45226395	1.19487268	6.75377264	-5.34345549	1.90091071	8.06583580	0.55685723	-1.00040976	5.51225029	-1.72945245	7.25687884	5.73118755	1.39087969	11.00034836
1353	13.52000000	9.77445940	-0.19886031	6.88922432	9.88165941	1.63520157	3.69465628	13.11652743	-2.38698421	1.43391522	10.36158193	-1.91862566	1.58243752	7.36983192	-3.98690111	0.24772293	8.00099144	-2.03601803	-1.28697863	6.52434505	-1.22905500	7.53235563	5.73262431	1.85307225	10.86992707
1354	13.53000000	8.86787269	0.10697398	6.61097404	9.01195462	2.00319617	3.68416389	12.53670685	-1.75770834	1.05727362	9.31594581	-1.22215349	1.85215950	8.37217659	-3.57650344	-1.49122125	8.33119590	-4.33696289	-1.78649050	8.30488976	-1.27562309	8.19458641	5.79806520	2.03831737	10.81773945
1355	13.54000000	8.01139917	0.42505566	6.31235126	8.26933418	1.96276712	3.66478915	11.73127581	-0.70811947	0.54350580	8.52112389	-0.38267538	2.03657160	8.76359330	-4.53315948	-1.59515913	8.49858160	-5.40784566	-2.30532047	10.88018134	-2.30464937	9.05057871	5.70962977	1.85776530	10.75277375
1356	13.55000000	7.33150677	0.70021205	6.01506301	7.74446706	1.55385593	3.63243712	10.78702423	0.61751176	0.06293566	8.05779907	0.55460295	2.12155488	8.61045962	-5.94610928	-0.33278037	8.54042906	-5.09024241	-2.65557642	13.73473750	-3.66477778	9.57624555	5.48298928	1.41164516	10.71145630
1357	13.56000000	6.96514849	0.88723582	5.74394208	7.51259266	0.91399141	3.67075566	9.94375140	2.05502915	-0.13724330	7.90290468	1.52913100	2.06564701	8.60502973	-6.12359790	0.85611977	8.84393773	-3.68625012	-2.65335106	16.03387918	-4.06794166	9.05739604	5.27135208	0.91160390	10.80493822
1358	13.57000000	6.97179248	0.96455364	5.52385090	7.57587746	0.18848457	3.81551526	9.39377987	3.47715420	-0.04874405	8.07898212	2.40102059	1.86493214	9.11166481	-4.34128139	1.06024984	9.54931590	-1.61737932	-2.24257656	17.02867207	-3.16580306	7.88482199	5.17758395	0.54347013	11.04848824
1359	13.58000000	7.23771501	0.96303853	5.37962781	7.77388755	-0.46280368	3.99312881	9.21908641	4.83946594	-0.19856084	8.71332861	2.85380251	1.60005913	9.74505927	-2.05589202	0.58132539	10.23557701	0.44169682	-1.65231438	16.17070652	-2.72517281	8.92031018	5.18825636	0.43225168	11.24128067
1360	13.59000000	7.63467244	0.91778394	5.33297075	7.94156575	-0.89026295	4.12213801	9.44398136	6.07844358	-1.08141950	9.90975493	2.58791468	1.35381322	10.06166260	-0.87466440	-0.13691945	10.44684108	1.83486506	-1.14008986	13.04071357	-4.53213167	14.82810798	5.27149134	0.67349562	11.18060916
1361	13.60000000	8.12644670	0.83419347	5.37319117	8.09325494	-1.07042943	4.19258196	9.65158630	6.81764754	-2.11120968	11.38327804	1.72499555	1.11291028	10.06380013	-0.91191904	-0.87899748	10.15090817	2.45124907	-0.85899512	8.27251936	-7.61714469	22.78152551	5.36739132	1.14356504	10.94620391
1362	13.61000000	8.73080344	0.70020653	5.47051097	8.34885425	-1.05430890	4.23658925	9.16685713	6.49804733	-2.06794475	12.62015173	0.63497172	0.80780796	10.01627501	-1.40222185	-1.56396628	9.56560428	2.50166218	-0.90013694	3.12079670	-9.39138916	26.72982232	5.39977093	1.58985804	10.78385728
1363	13.62000000	9.40124076	0.51439260	5.59845804	8.77024688	-0.90444366	4.26771181	7.75913614	4.98528468	-0.52031687	13.23176805	-0.35090557	0.45674539	10.06750595	-1.77749799	-2.08958067	8.92839756	2.20726791	-1.27424765	-1.24141491	-8.59709677	23.82564028	5.34358808	1.83055700	10.82274301
1364	13.63000000	9.94630196	0.29954334	5.73848732	9.28682280	-0.70696946	4.25683838	6.19675596	3.09782453	1.18494771	13.11533342	-0.99484038	0.27544814	10.09865721	-1.93540505	-2.30218328	8.51337266	1.80304661	-1.81451026	-3.84112631	-6.99313672	18.46220369	5.28838467	1.84550222	10.92703842
1365	13.64000000	10.17564332	0.08204904	5.87183089	9.80858021	-0.54467766	4.17250949	5.30873701	1.71765634	1.61647286	12.24851487	-1.10517472	0.47335229	9.97522569	-1.84564140	-2.06897977	8.56437240	1.50360531	-2.33359154	-3.88767855	-6.53793700	15.56261475	5.32674973	1.64674975	10.94157143
